<svg width="212" height="188" viewBox="0 0 64 64" fill="none" xmlns="http://www.w3.org/2000/svg">
<path d="M38.62 23.24C38.62 20.48 36.4 18.32 33.7 18.32C33.1 18.32 32.56 18.44 32.02 18.62C31.84 16.58 30.16 14.9 28.06 14.9C25.84 14.9 24.04 16.7 24.04 18.92C24.04 19.4 24.16 19.88 24.28 20.3C24.1 20.24 23.86 20.24 23.68 20.24C21.46 20.24 19.66 22.04 19.66 24.26C19.66 26.42 21.4 28.22 23.56 28.28H33.88C36.52 27.98 38.62 25.88 38.62 23.24Z" fill="#91C0F8" stroke="white" stroke-width="0.72" stroke-linejoin="round"/>
<path d="M47.7 34.4C47.7 29.8 44 26.2 39.5 26.2C38.5 26.2 37.6 26.4 36.7 26.7C36.4 23.3 33.6 20.5 30.1 20.5C26.4 20.5 23.4 23.5 23.4 27.2C23.4 28 23.6 28.8 23.8 29.5C23.5 29.4 23.1 29.4 22.8 29.4C19.1 29.4 16.1 32.4 16.1 36.1C16.1 39.7 19 42.7 22.6 42.8H39.8C44.2 42.3 47.7 38.8 47.7 34.4Z" fill="#57A0EE" stroke="white" stroke-width="1.2" stroke-linejoin="round"/>
</svg>
