<svg width="64" height="64" viewBox="0 0 64 64" fill="none" xmlns="http://www.w3.org/2000/svg">
<path d="M38.62 25.24C38.62 22.48 36.4 20.32 33.7 20.32C33.1 20.32 32.56 20.44 32.02 20.62C31.84 18.58 30.16 16.9 28.06 16.9C25.84 16.9 24.04 18.7 24.04 20.92C24.04 21.4 24.16 21.88 24.28 22.3C24.1 22.24 23.86 22.24 23.68 22.24C21.46 22.24 19.66 24.04 19.66 26.26C19.66 28.42 21.4 30.22 23.56 30.28H33.88C36.52 29.98 38.62 27.88 38.62 25.24Z" fill="#91C0F8" stroke="white" stroke-width="0.72" stroke-linejoin="round"/>
<path d="M47.7 34.4C47.7 29.8 44 26.2 39.5 26.2C38.5 26.2 37.6 26.4 36.7 26.7C36.4 23.3 33.6 20.5 30.1 20.5C26.4 20.5 23.4 23.5 23.4 27.2C23.4 28 23.6 28.8 23.8 29.5C23.5 29.4 23.1 29.4 22.8 29.4C19.1 29.4 16.1 32.4 16.1 36.1C16.1 39.7 19 42.7 22.6 42.8H39.8C44.2 42.3 47.7 38.8 47.7 34.4Z" fill="#57A0EE" stroke="white" stroke-width="1.2" stroke-linejoin="round"/>
<path d="M28.1599 34.52H35.5999L30.6799 43.16H35.3599L24.7999 55.52L28.8799 46.28H24.3199L28.1599 34.52Z" fill="#FFA500" stroke="white" stroke-width="1.2"/>
</svg>
